<svg width="25" height="24" viewBox="0 0 25 24" fill="none" xmlns="http://www.w3.org/2000/svg">
<circle cx="12.5" cy="12" r="12" fill="#FF8906" fill-opacity="0.1"/>
<path d="M12.5 17.3333H18.5" stroke="#FF8906" stroke-linecap="round" stroke-linejoin="round"/>
<path d="M15.5 6.3334C15.7652 6.06819 16.1249 5.91919 16.5 5.91919C16.6857 5.91919 16.8696 5.95577 17.0412 6.02684C17.2128 6.09791 17.3687 6.20208 17.5 6.3334C17.6313 6.46472 17.7355 6.62063 17.8066 6.79221C17.8776 6.96379 17.9142 7.14769 17.9142 7.3334C17.9142 7.51912 17.8776 7.70302 17.8066 7.8746C17.7355 8.04618 17.6313 8.20208 17.5 8.3334L9.16667 16.6667L6.5 17.3334L7.16667 14.6667L15.5 6.3334Z" stroke="#FF8906" stroke-linecap="round" stroke-linejoin="round"/>
</svg>
