<svg width="25" height="24" viewBox="0 0 25 24" fill="none" xmlns="http://www.w3.org/2000/svg">
<path fill-rule="evenodd" clip-rule="evenodd" d="M12.6646 18.6666C11.7612 18.6666 10.8806 18.6566 10.0092 18.6386C8.89456 18.6166 8.12323 17.8939 7.99723 16.7526C7.78723 14.8593 7.42789 10.3966 7.42456 10.3519C7.40189 10.0766 7.60723 9.83527 7.88256 9.81327C8.15389 9.80594 8.39923 9.9966 8.42123 10.2713C8.42456 10.3166 8.78323 14.7639 8.99123 16.6426C9.06256 17.2913 9.41256 17.6259 10.0299 17.6386C11.6966 17.6739 13.3972 17.6759 15.2306 17.6426C15.8866 17.6299 16.2412 17.3019 16.3146 16.6379C16.5212 14.7753 16.8812 10.3166 16.8852 10.2713C16.9072 9.9966 17.1506 9.8046 17.4232 9.81327C17.6986 9.83594 17.9039 10.0766 17.8819 10.3519C17.8779 10.3973 17.5166 14.8713 17.3086 16.7479C17.1792 17.9126 16.4099 18.6213 15.2486 18.6426C14.3599 18.6579 13.5026 18.6666 12.6646 18.6666Z" fill="#D00000"/>
<path fill-rule="evenodd" clip-rule="evenodd" d="M18.3053 8.65942H7C6.724 8.65942 6.5 8.43542 6.5 8.15942C6.5 7.88342 6.724 7.65942 7 7.65942H18.3053C18.5813 7.65942 18.8053 7.88342 18.8053 8.15942C18.8053 8.43542 18.5813 8.65942 18.3053 8.65942Z" fill="#D00000"/>
<path fill-rule="evenodd" clip-rule="evenodd" d="M16.1274 8.6595C15.3687 8.6595 14.71 8.11883 14.5607 7.37483L14.3987 6.56416C14.3647 6.44083 14.224 6.3335 14.064 6.3335H11.242C11.082 6.3335 10.9414 6.44083 10.9007 6.59483L10.7454 7.37483C10.5967 8.11883 9.93738 8.6595 9.17871 8.6595C8.90271 8.6595 8.67871 8.4355 8.67871 8.1595C8.67871 7.8835 8.90271 7.6595 9.17871 7.6595C9.46271 7.6595 9.70938 7.45683 9.76538 7.17816L9.92738 6.3675C10.092 5.74616 10.63 5.3335 11.242 5.3335H14.064C14.676 5.3335 15.214 5.74616 15.372 6.3375L15.5414 7.17816C15.5967 7.45683 15.8434 7.6595 16.1274 7.6595C16.4034 7.6595 16.6274 7.8835 16.6274 8.1595C16.6274 8.4355 16.4034 8.6595 16.1274 8.6595Z" fill="#D00000"/>
<circle cx="12.5" cy="12" r="12" fill="#D00000" fill-opacity="0.1"/>
</svg>
