<svg width="16" height="12" viewBox="0 0 16 12" fill="none" xmlns="http://www.w3.org/2000/svg">
<path fill-rule="evenodd" clip-rule="evenodd" d="M1.74988 0C0.78338 0 -0.000122066 0.7835 -0.000122066 1.75V2.48577C-0.000285027 2.49479 -0.000284637 2.50381 -0.000122066 2.51282V10.25C-0.000122066 11.2165 0.783379 12 1.74988 12H14.2499C15.2164 12 15.9999 11.2165 15.9999 10.25V2.51265C16.0001 2.50376 16.0001 2.49485 15.9999 2.48594V1.75C15.9999 0.7835 15.2164 0 14.2499 0H1.74988ZM14.4999 2.07029V1.75C14.4999 1.61193 14.388 1.5 14.2499 1.5H1.74988C1.61181 1.5 1.49988 1.61193 1.49988 1.75V2.07029L7.99988 5.88063L14.4999 2.07029ZM1.49988 3.80902V10.25C1.49988 10.3881 1.61181 10.5 1.74988 10.5H14.2499C14.388 10.5 14.4999 10.3881 14.4999 10.25V3.80902L8.37917 7.39702C8.14495 7.53432 7.85481 7.53432 7.62059 7.39702L1.49988 3.80902Z" fill="#4F5665"/>
</svg>
